<svg id="visual" viewBox="0 0 960 540" width="960" height="540" xmlns="http://www.w3.org/2000/svg" xmlns:xlink="http://www.w3.org/1999/xlink" version="1.1"><path d="M0 501L14.5 501C29 501 58 501 87.2 501.5C116.3 502 145.7 503 174.8 503.5C204 504 233 504 262 503.5C291 503 320 502 349 501.2C378 500.3 407 499.7 436.2 499.7C465.3 499.7 494.7 500.3 523.8 501.2C553 502 582 503 611 503C640 503 669 502 698 502C727 502 756 503 785.2 503.2C814.3 503.3 843.7 502.7 872.8 501.7C902 500.7 931 499.3 945.5 498.7L960 498L960 541L945.5 541C931 541 902 541 872.8 541C843.7 541 814.3 541 785.2 541C756 541 727 541 698 541C669 541 640 541 611 541C582 541 553 541 523.8 541C494.7 541 465.3 541 436.2 541C407 541 378 541 349 541C320 541 291 541 262 541C233 541 204 541 174.8 541C145.7 541 116.3 541 87.2 541C58 541 29 541 14.5 541L0 541Z" fill="#f9a8d4"></path><path d="M0 515L14.5 515C29 515 58 515 87.2 515C116.3 515 145.7 515 174.8 514.8C204 514.7 233 514.3 262 513.7C291 513 320 512 349 511.7C378 511.3 407 511.7 436.2 511.8C465.3 512 494.7 512 523.8 512.7C553 513.3 582 514.7 611 514.7C640 514.7 669 513.3 698 512.7C727 512 756 512 785.2 511.8C814.3 511.7 843.7 511.3 872.8 511.3C902 511.3 931 511.7 945.5 511.8L960 512L960 541L945.5 541C931 541 902 541 872.8 541C843.7 541 814.3 541 785.2 541C756 541 727 541 698 541C669 541 640 541 611 541C582 541 553 541 523.8 541C494.7 541 465.3 541 436.2 541C407 541 378 541 349 541C320 541 291 541 262 541C233 541 204 541 174.8 541C145.7 541 116.3 541 87.2 541C58 541 29 541 14.5 541L0 541Z" fill="#be5cb7"></path><path d="M0 526L14.5 526C29 526 58 526 87.2 526.2C116.3 526.3 145.7 526.7 174.8 526.5C204 526.3 233 525.7 262 525.5C291 525.3 320 525.7 349 525.8C378 526 407 526 436.2 525.5C465.3 525 494.7 524 523.8 524.3C553 524.7 582 526.3 611 526.8C640 527.3 669 526.7 698 526.7C727 526.7 756 527.3 785.2 527.3C814.3 527.3 843.7 526.7 872.8 526.7C902 526.7 931 527.3 945.5 527.7L960 528L960 541L945.5 541C931 541 902 541 872.8 541C843.7 541 814.3 541 785.2 541C756 541 727 541 698 541C669 541 640 541 611 541C582 541 553 541 523.8 541C494.7 541 465.3 541 436.2 541C407 541 378 541 349 541C320 541 291 541 262 541C233 541 204 541 174.8 541C145.7 541 116.3 541 87.2 541C58 541 29 541 14.5 541L0 541Z" fill="#6818a5"></path></svg>